<svg width="140" height="146" viewBox="0 0 140 146" fill="none" xmlns="http://www.w3.org/2000/svg">
<g filter="url(#filter0_d_227_25)">
<path fill-rule="evenodd" clip-rule="evenodd" d="M8.38443 87.5806C7.97323 85.6737 9.21771 83.7877 11.164 83.368L121.42 59.593C123.366 59.1733 125.277 60.3789 125.688 62.2858L135.793 109.145C136.204 111.051 134.959 112.938 133.013 113.357L22.7575 137.132C20.8112 137.552 18.9 136.346 18.4888 134.439L8.38443 87.5806ZM19.5596 88.0959C19.9316 89.8212 18.8057 91.5277 17.0447 91.9074C15.2837 92.2871 13.5546 91.1963 13.1826 89.471C12.8105 87.7457 13.9365 86.0393 15.6974 85.6596C17.4584 85.2798 19.1876 86.3706 19.5596 88.0959ZM119.581 69.7971C121.342 69.4173 122.468 67.7109 122.095 65.9856C121.723 64.2603 119.994 63.1695 118.233 63.5492C116.472 63.929 115.346 65.6354 115.718 67.3607C116.09 69.086 117.82 70.1768 119.581 69.7971Z" fill="#6AC9FF"/>
</g>
<line x1="77.1144" y1="13.1883" x2="17.1883" y2="85.8856" stroke="#A3A3A3" stroke-width="1.68822" stroke-linecap="round"/>
<line x1="116.816" y1="64.8459" x2="77.1521" y2="13.3111" stroke="#A3A3A3" stroke-width="1.68822" stroke-linecap="round"/>
<path d="M45.7825 96.5555L47.9509 96.0879C48.0607 96.808 48.0009 97.4812 47.7717 98.1074C47.5472 98.7326 47.159 99.2666 46.6068 99.7095C46.0595 100.151 45.3532 100.466 44.4877 100.652C43.8108 100.798 43.1791 100.813 42.5923 100.697C42.0046 100.575 41.4723 100.336 40.9955 99.9784C40.5235 99.6198 40.1211 99.15 39.7884 98.569C39.4557 97.9881 39.2059 97.3108 39.0391 96.5372L38.8812 95.8047C38.7144 95.0312 38.6653 94.3106 38.7338 93.6432C38.8062 92.9698 38.9859 92.372 39.273 91.8496C39.5649 91.3263 39.9537 90.8883 40.4392 90.5356C40.9248 90.183 41.4988 89.9353 42.1612 89.7924C43.0411 89.6027 43.8177 89.6022 44.4908 89.791C45.1688 89.9787 45.7351 90.317 46.1896 90.8059C46.649 91.2938 46.9897 91.8882 47.2117 92.5892L45.036 93.0583C44.9201 92.6381 44.7578 92.2961 44.5492 92.0325C44.3395 91.764 44.071 91.5866 43.7438 91.5003C43.4203 91.4082 43.0168 91.4142 42.5334 91.5185C42.1707 91.5967 41.8687 91.7326 41.6271 91.9264C41.3855 92.1202 41.2026 92.3746 41.0783 92.6898C40.954 93.005 40.8913 93.3829 40.8901 93.8233C40.8928 94.2579 40.9545 94.7556 41.0755 95.3164L41.2366 96.0634C41.3544 96.6097 41.4992 97.0819 41.6711 97.48C41.8419 97.8732 42.0426 98.1942 42.2734 98.443C42.5079 98.6859 42.7762 98.8507 43.0782 98.9373C43.384 99.0181 43.7303 99.0168 44.1171 98.9334C44.5716 98.8354 44.9306 98.6821 45.1943 98.4734C45.4579 98.2648 45.6364 98.0012 45.7296 97.6825C45.8276 97.3629 45.8452 96.9872 45.7825 96.5555ZM57.617 91.8861L57.7249 92.3865C57.898 93.1891 57.9445 93.9329 57.8646 94.618C57.7846 95.3031 57.5949 95.9133 57.2954 96.4484C56.9949 96.9787 56.5945 97.4217 56.0945 97.7775C55.5992 98.1322 55.018 98.3815 54.3508 98.5254C53.6884 98.6682 53.0561 98.6806 52.4538 98.5625C51.8564 98.4434 51.3091 98.2047 50.8119 97.8465C50.3136 97.4834 49.8845 97.0067 49.5245 96.4164C49.1693 95.8252 48.9052 95.1282 48.7321 94.3256L48.6242 93.8252C48.4501 93.0178 48.4035 92.274 48.4845 91.5937C48.5645 90.9086 48.7542 90.2985 49.0537 89.7633C49.358 89.2272 49.7578 88.7817 50.2531 88.427C50.7532 88.0713 51.3344 87.822 51.9968 87.6791C52.664 87.5353 53.2963 87.5229 53.8937 87.642C54.496 87.76 55.0438 88.0011 55.5372 88.3653C56.0355 88.7284 56.4622 89.2056 56.8174 89.7969C57.1763 90.3823 57.4429 91.0787 57.617 91.8861ZM55.5275 92.8603L55.4164 92.3454C55.2955 91.7846 55.1384 91.3024 54.9451 90.8988C54.7518 90.4952 54.5248 90.1698 54.264 89.9224C54.0032 89.6751 53.7146 89.5096 53.3981 89.4261C53.0805 89.3377 52.738 89.3332 52.3705 89.4124C52.0031 89.4916 51.6929 89.637 51.44 89.8483C51.1908 90.0539 50.9984 90.323 50.8627 90.6559C50.7319 90.9877 50.6616 91.3772 50.6518 91.8246C50.642 92.272 50.6976 92.7761 50.8185 93.3369L50.9295 93.8518C51.0494 94.4078 51.2065 94.89 51.4009 95.2984C51.5941 95.702 51.8217 96.0299 52.0835 96.282C52.3443 96.5294 52.6335 96.6972 52.951 96.7856C53.2686 96.874 53.6111 96.8786 53.9786 96.7993C54.346 96.7201 54.6562 96.5748 54.9092 96.3634C55.1621 96.152 55.354 95.8804 55.4848 95.5486C55.6146 95.212 55.6844 94.82 55.6942 94.3726C55.7029 93.9204 55.6474 93.4163 55.5275 92.8603ZM59.0917 86.301L60.9338 85.9038L65.3179 93.0716L66.3585 84.734L68.2005 84.3368L66.6628 95.7187L65.1834 96.0377L59.0917 86.301ZM58.0982 86.5152L59.933 86.1196L61.8961 93.6045L62.5435 96.6069L60.3751 97.0745L58.0982 86.5152ZM67.3593 84.5182L69.2014 84.121L71.4783 94.6803L69.3026 95.1494L68.6552 92.147L67.3593 84.5182ZM73.4222 83.2109L75.6991 93.7701L73.5307 94.2377L71.2537 83.6784L73.4222 83.2109ZM84.0539 80.9183L86.3309 91.4775L84.1552 91.9467L78.3864 85.7833L79.9127 92.8615L77.737 93.3307L75.46 82.7714L77.6357 82.3023L83.4134 88.4713L81.8855 81.3859L84.0539 80.9183ZM95.4027 83.7457L96.3051 87.9303C96.1834 88.164 95.976 88.4338 95.6828 88.7399C95.3885 89.0412 94.9883 89.3324 94.4823 89.6136C93.9762 89.8947 93.3388 90.1182 92.5701 90.2839C91.8884 90.4309 91.2431 90.4537 90.6343 90.3522C90.0245 90.2459 89.4696 90.019 88.9696 89.6714C88.4745 89.3228 88.0504 88.8577 87.6973 88.2761C87.3432 87.6897 87.0785 86.9903 86.9034 86.1781L86.7611 85.5181C86.5859 84.7059 86.534 83.9606 86.6053 83.2825C86.6815 82.6032 86.8684 82.0038 87.1662 81.4842C87.464 80.9646 87.8592 80.5329 88.3517 80.1889C88.8442 79.8448 89.4216 79.6014 90.084 79.4586C91.0026 79.2605 91.7892 79.2478 92.4436 79.4203C93.0971 79.5881 93.6353 79.9021 94.0584 80.3623C94.4853 80.8167 94.8079 81.3745 95.0264 82.0358L92.916 82.4909C92.7857 82.1445 92.6169 81.8546 92.4097 81.621C92.2025 81.3874 91.9425 81.2259 91.6297 81.1365C91.3218 81.046 90.9479 81.0482 90.5079 81.1431C90.1453 81.2213 89.8376 81.3661 89.5846 81.5775C89.3355 81.783 89.145 82.0492 89.0131 82.3762C88.8812 82.7032 88.8098 83.0879 88.799 83.5304C88.7882 83.9729 88.8427 84.4722 88.9626 85.0282L89.108 85.7027C89.2269 86.2538 89.3854 86.7307 89.5835 87.1332C89.7806 87.5309 90.0143 87.8524 90.2848 88.0976C90.559 88.337 90.8665 88.4959 91.2072 88.5742C91.5479 88.6525 91.9237 88.6474 92.3347 88.5588C92.678 88.4847 92.957 88.3942 93.1717 88.2872C93.3913 88.1791 93.5623 88.0689 93.6848 87.9565C93.811 87.8382 93.9045 87.732 93.9652 87.638L93.5617 85.7669L91.5746 86.1954L91.24 84.6434L95.4027 83.7457ZM59.8676 112.706C59.827 112.518 59.7615 112.355 59.6711 112.217C59.5846 112.074 59.4528 111.956 59.2758 111.862C59.0978 111.764 58.8599 111.681 58.562 111.614C58.2641 111.547 57.8855 111.492 57.426 111.449C56.914 111.398 56.422 111.322 55.95 111.221C55.4828 111.119 55.0572 110.976 54.6732 110.79C54.2929 110.599 53.9715 110.352 53.709 110.05C53.4512 109.746 53.2733 109.367 53.1753 108.912C53.0805 108.472 53.0911 108.053 53.2074 107.653C53.3226 107.249 53.5266 106.881 53.8195 106.55C54.1113 106.214 54.479 105.924 54.9226 105.682C55.371 105.439 55.8804 105.255 56.4509 105.132C57.2293 104.965 57.9389 104.958 58.5795 105.114C59.2202 105.269 59.7527 105.556 60.1771 105.976C60.6063 106.394 60.8887 106.918 61.0242 107.546L58.8631 108.012C58.7963 107.703 58.6727 107.446 58.4921 107.242C58.3153 107.032 58.0818 106.888 57.7915 106.809C57.5061 106.729 57.1675 106.731 56.7759 106.815C56.3988 106.897 56.0971 107.023 55.8707 107.193C55.6432 107.358 55.4875 107.551 55.4035 107.772C55.3185 107.987 55.3015 108.214 55.3526 108.451C55.3911 108.629 55.4696 108.782 55.5879 108.908C55.711 109.034 55.8756 109.14 56.0816 109.227C56.2876 109.314 56.5331 109.385 56.8182 109.44C57.1032 109.495 57.4289 109.538 57.7951 109.571C58.408 109.621 58.9554 109.708 59.4375 109.831C59.9243 109.954 60.3444 110.119 60.6978 110.326C61.0511 110.533 61.3397 110.792 61.5636 111.103C61.7875 111.414 61.9463 111.787 62.0402 112.222C62.1392 112.682 62.1384 113.112 62.0377 113.513C61.937 113.914 61.7445 114.277 61.4603 114.602C61.1761 114.926 60.8135 115.204 60.3727 115.436C59.9319 115.667 59.4214 115.846 58.8412 115.971C58.319 116.083 57.7895 116.127 57.2527 116.101C56.7148 116.07 56.2077 115.959 55.7315 115.769C55.26 115.577 54.8541 115.29 54.5137 114.908C54.1733 114.526 53.939 114.038 53.8107 113.443L55.9937 112.972C56.0646 113.301 56.1753 113.568 56.3258 113.773C56.4763 113.979 56.6586 114.132 56.8725 114.232C57.0913 114.332 57.3356 114.385 57.6054 114.393C57.8801 114.4 58.1721 114.369 58.4815 114.303C58.8586 114.221 59.1566 114.102 59.3754 113.943C59.599 113.784 59.7486 113.597 59.8239 113.383C59.9041 113.169 59.9187 112.943 59.8676 112.706ZM71.6006 107.284L71.7085 107.785C71.8816 108.587 71.9281 109.331 71.8482 110.016C71.7682 110.702 71.5785 111.312 71.279 111.847C70.9785 112.377 70.5782 112.82 70.0781 113.176C69.5828 113.531 69.0016 113.78 68.3344 113.924C67.672 114.067 67.0397 114.079 66.4374 113.961C65.84 113.842 65.2927 113.603 64.7955 113.245C64.2973 112.882 63.8681 112.405 63.5081 111.815C63.1529 111.224 62.8888 110.527 62.7157 109.724L62.6078 109.224C62.4337 108.416 62.3872 107.672 62.4682 106.992C62.5481 106.307 62.7378 105.697 63.0373 105.162C63.3417 104.626 63.7415 104.18 64.2367 103.825C64.7368 103.47 65.318 103.22 65.9804 103.077C66.6476 102.934 67.2799 102.921 67.8773 103.04C68.4796 103.158 69.0274 103.399 69.5208 103.764C70.0191 104.127 70.4458 104.604 70.801 105.195C71.16 105.781 71.4265 106.477 71.6006 107.284ZM69.5111 108.259L69.4001 107.744C69.2791 107.183 69.122 106.701 68.9287 106.297C68.7355 105.894 68.5084 105.568 68.2476 105.321C67.9869 105.073 67.6982 104.908 67.3817 104.824C67.0641 104.736 66.7216 104.732 66.3541 104.811C65.9867 104.89 65.6765 105.035 65.4236 105.247C65.1744 105.452 64.982 105.721 64.8463 106.054C64.7155 106.386 64.6452 106.776 64.6354 107.223C64.6256 107.67 64.6812 108.174 64.8021 108.735L64.9132 109.25C65.0331 109.806 65.1902 110.288 65.3845 110.697C65.5778 111.1 65.8053 111.428 66.0671 111.68C66.3279 111.928 66.6171 112.096 66.9347 112.184C67.2522 112.272 67.5948 112.277 67.9622 112.198C68.3296 112.118 68.6398 111.973 68.8928 111.762C69.1457 111.55 69.3376 111.279 69.4684 110.947C69.5982 110.61 69.668 110.218 69.6778 109.771C69.6866 109.319 69.631 108.815 69.5111 108.259ZM81.8408 105.076L81.9487 105.577C82.1217 106.379 82.1683 107.123 82.0884 107.808C82.0084 108.493 81.8187 109.103 81.5192 109.639C81.2186 110.169 80.8183 110.612 80.3182 110.968C79.823 111.322 79.2418 111.572 78.5746 111.716C77.9122 111.858 77.2799 111.871 76.6776 111.753C76.0802 111.634 75.5329 111.395 75.0357 111.037C74.5374 110.674 74.1083 110.197 73.7483 109.607C73.3931 109.015 73.129 108.318 72.9559 107.516L72.848 107.015C72.6739 106.208 72.6273 105.464 72.7083 104.784C72.7883 104.099 72.978 103.489 73.2775 102.954C73.5818 102.417 73.9816 101.972 74.4769 101.617C74.977 101.261 75.5582 101.012 76.2206 100.869C76.8878 100.725 77.5201 100.713 78.1175 100.832C78.7198 100.95 79.2676 101.191 79.761 101.556C80.2592 101.919 80.686 102.396 81.0411 102.987C81.4001 103.572 81.6667 104.269 81.8408 105.076ZM79.7513 106.051L79.6402 105.536C79.5193 104.975 79.3622 104.493 79.1689 104.089C78.9756 103.685 78.7486 103.36 78.4878 103.113C78.227 102.865 77.9384 102.7 77.6218 102.616C77.3043 102.528 76.9618 102.523 76.5943 102.603C76.2269 102.682 75.9167 102.827 75.6637 103.039C75.4146 103.244 75.2222 103.513 75.0865 103.846C74.9557 104.178 74.8854 104.567 74.8756 105.015C74.8658 105.462 74.9214 105.966 75.0423 106.527L75.1533 107.042C75.2732 107.598 75.4303 108.08 75.6246 108.489C75.8179 108.892 76.0455 109.22 76.3073 109.472C76.5681 109.72 76.8573 109.887 77.1748 109.976C77.4924 110.064 77.8349 110.069 78.2024 109.99C78.5698 109.91 78.88 109.765 79.1329 109.554C79.3859 109.342 79.5778 109.071 79.7086 108.739C79.8384 108.402 79.9082 108.01 79.918 107.563C79.9267 107.111 79.8711 106.607 79.7513 106.051ZM90.9159 97.8523L93.1928 108.412L91.0171 108.881L85.2483 102.717L86.7746 109.796L84.5989 110.265L82.322 99.7055L84.4976 99.2363L90.2753 105.405L88.7474 98.3199L90.9159 97.8523Z" fill="white"/>
<g filter="url(#filter1_d_227_25)">
<circle cx="78.0994" cy="8.22711" r="3.20762" transform="rotate(-6.16865 78.0994 8.22711)" fill="#494949"/>
<line x1="78.3633" y1="8.12791" x2="77.1271" y2="15.3023" stroke="#494949"/>
</g>
<defs>
<filter id="filter0_d_227_25" x="4.30591" y="59.5096" width="135.565" height="85.7059" filterUnits="userSpaceOnUse" color-interpolation-filters="sRGB">
<feFlood flood-opacity="0" result="BackgroundImageFix"/>
<feColorMatrix in="SourceAlpha" type="matrix" values="0 0 0 0 0 0 0 0 0 0 0 0 0 0 0 0 0 0 127 0" result="hardAlpha"/>
<feOffset dy="4"/>
<feGaussianBlur stdDeviation="2"/>
<feComposite in2="hardAlpha" operator="out"/>
<feColorMatrix type="matrix" values="0 0 0 0 0 0 0 0 0 0 0 0 0 0 0 0 0 0 0.15 0"/>
<feBlend mode="normal" in2="BackgroundImageFix" result="effect1_dropShadow_227_25"/>
<feBlend mode="normal" in="SourceGraphic" in2="effect1_dropShadow_227_25" result="shape"/>
</filter>
<filter id="filter1_d_227_25" x="68.5657" y="4.69339" width="15.4526" height="24.6938" filterUnits="userSpaceOnUse" color-interpolation-filters="sRGB">
<feFlood flood-opacity="0" result="BackgroundImageFix"/>
<feColorMatrix in="SourceAlpha" type="matrix" values="0 0 0 0 0 0 0 0 0 0 0 0 0 0 0 0 0 0 127 0" result="hardAlpha"/>
<feOffset dx="-2" dy="10"/>
<feGaussianBlur stdDeviation="2"/>
<feComposite in2="hardAlpha" operator="out"/>
<feColorMatrix type="matrix" values="0 0 0 0 0 0 0 0 0 0 0 0 0 0 0 0 0 0 0.25 0"/>
<feBlend mode="normal" in2="BackgroundImageFix" result="effect1_dropShadow_227_25"/>
<feBlend mode="normal" in="SourceGraphic" in2="effect1_dropShadow_227_25" result="shape"/>
</filter>
</defs>
</svg>
